<svg width="56" height="56" viewBox="0 0 56 56" fill="none" xmlns="http://www.w3.org/2000/svg">
<path d="M28 55.125C42.9807 55.125 55.125 42.9807 55.125 28C55.125 13.0193 42.9807 0.875 28 0.875C13.0193 0.875 0.875 13.0193 0.875 28C0.875 42.9807 13.0193 55.125 28 55.125Z" fill="#E6ECFF"/>
<g clip-path="url(#clip0_602_670)">
<path d="M38.7999 26.8H29.2001V17.1999C29.2001 16.5377 28.6624 16 27.9999 16C27.3377 16 26.8 16.5377 26.8 17.1999V26.8H17.1999C16.5377 26.8 16 27.3377 16 27.9999C16 28.6624 16.5377 29.2001 17.1999 29.2001H26.8V38.7999C26.8 39.4624 27.3377 40.0001 27.9999 40.0001C28.6624 40.0001 29.2001 39.4624 29.2001 38.7999V29.2001H38.7999C39.4624 29.2001 40.0001 28.6624 40.0001 27.9999C40.0001 27.3377 39.4624 26.8 38.7999 26.8V26.8Z" fill="#4B84F4"/>
</g>
<defs>
<clipPath id="clip0_602_670">
<rect width="24" height="24" fill="white" transform="translate(16 16)"/>
</clipPath>
</defs>
</svg>
