<svg width="14" height="13" viewBox="0 0 14 13" fill="none" xmlns="http://www.w3.org/2000/svg">
<path d="M13.4313 12.4175C13.4311 12.4175 13.4309 12.4175 13.4306 12.4175H0.568746C0.25462 12.4175 0 12.1628 0 11.8487C0 10.6042 0.749429 9.50399 1.86904 9.03581V5.07744C1.86904 3.72116 2.39719 2.44611 3.35621 1.48713C4.31518 0.528116 5.59013 0 6.94617 0H7.05316C8.38957 0 9.69804 0.54205 10.6431 1.48716C11.6021 2.44614 12.1303 3.7212 12.1303 5.07748V9.03584C13.2404 9.50008 13.9866 10.5855 13.9991 11.817C13.9998 11.8275 14 11.8381 14 11.8488C14 12.1628 13.7454 12.4175 13.4313 12.4175ZM1.22344 11.28H12.7759C12.5827 10.6574 12.0791 10.1619 11.4218 9.99532C11.1695 9.93137 10.9928 9.7043 10.9928 9.44399V5.07744C10.9928 4.02501 10.583 3.03557 9.83881 2.29148C9.10544 1.55808 8.09013 1.13749 7.05316 1.13749H6.94617C5.89391 1.13749 4.90465 1.54731 4.16055 2.29148C3.41635 3.03561 3.00653 4.02505 3.00653 5.07748V9.44406C3.00653 9.70437 2.82983 9.93144 2.57752 9.99539C1.92023 10.1619 1.41664 10.6574 1.22344 11.28Z" fill="#2E2E2E" fill-opacity="0.5"/>
</svg>
